<svg width="11" height="12" viewBox="0 0 11 12" fill="none" xmlns="http://www.w3.org/2000/svg">
<path d="M8.53613 1.96406C7.96426 1.39219 7.03613 1.39219 6.46426 1.96406L2.15176 6.27656C1.16504 7.26328 1.16504 8.86172 2.15176 9.84844C3.13848 10.8352 4.73691 10.8352 5.72363 9.84844L9.28613 6.28594C9.5416 6.03047 9.95879 6.03047 10.2143 6.28594C10.4697 6.54141 10.4697 6.95859 10.2143 7.21406L6.65176 10.7766C5.15176 12.2766 2.72363 12.2766 1.22363 10.7766C-0.276367 9.27656 -0.276367 6.84844 1.22363 5.34844L5.53613 1.03594C6.62129 -0.0492183 8.3791 -0.0492183 9.46426 1.03594C10.5494 2.12109 10.5494 3.87891 9.46426 4.96406L5.33926 9.08906C4.66895 9.75938 3.58145 9.75938 2.91113 9.08906C2.24082 8.41875 2.24082 7.33125 2.91113 6.66094L6.28613 3.28594C6.5416 3.03047 6.95879 3.03047 7.21426 3.28594C7.46973 3.54141 7.46973 3.95859 7.21426 4.21406L3.83926 7.58906C3.68223 7.74609 3.68223 8.00391 3.83926 8.16094C3.99629 8.31797 4.2541 8.31797 4.41113 8.16094L8.53613 4.03594C9.10801 3.46406 9.10801 2.53594 8.53613 1.96406Z" fill="#334155"/>
</svg>
