<svg width="16" height="21" viewBox="0 0 16 21" fill="none" xmlns="http://www.w3.org/2000/svg">
<path d="M7.87482 1.25C7.25255 1.25 6.74982 1.75273 6.74982 2.375V3.05C4.18341 3.57031 2.24982 5.84141 2.24982 8.5625V9.22344C2.24982 10.8758 1.64161 12.4719 0.544737 13.7094L0.284581 14.0012C-0.0107315 14.3316 -0.0810441 14.8062 0.0982528 15.2105C0.27755 15.6148 0.681847 15.875 1.12482 15.875H14.6248C15.0678 15.875 15.4686 15.6148 15.6514 15.2105C15.8342 14.8062 15.7604 14.3316 15.465 14.0012L15.2049 13.7094C14.108 12.4719 13.4998 10.8793 13.4998 9.22344V8.5625C13.4998 5.84141 11.5662 3.57031 8.99981 3.05V2.375C8.99981 1.75273 8.49708 1.25 7.87482 1.25ZM9.46739 18.5926C9.88927 18.1707 10.1248 17.5977 10.1248 17H7.87482H5.62482C5.62482 17.5977 5.86036 18.1707 6.28224 18.5926Cnan nan 7.27716 19.25 7.87482 19.25Cnan nan 9.04552 19.0145 9.46739 18.5926Z" fill="#64748B"/>
</svg>
