<svg width="9" height="12" viewBox="0 0 9 12" fill="none" xmlns="http://www.w3.org/2000/svg">
<path d="M8.02974 3.52969C8.32271 3.23672 8.32271 2.76094 8.02974 2.46797C7.73677 2.175 7.26099 2.175 6.96802 2.46797L4.50005 4.93828L2.02974 2.47032C1.73677 2.17735 1.26099 2.17735 0.968018 2.47032C0.675049 2.76328 0.675049 3.23907 0.968018 3.53203L3.43833 6L0.970361 8.47032C0.677393 8.76328 0.677393 9.23907 0.970361 9.53203C1.26333 9.825 1.73911 9.825 2.03208 9.53203L4.50005 7.06172L6.97036 9.52969C7.26333 9.82266 7.73911 9.82266 8.03208 9.52969C8.32505 9.23672 8.32505 8.76094 8.03208 8.46797L5.56177 6L8.02974 3.52969Z" fill="#3B82F6"/>
</svg>
