<svg width="16" height="16" viewBox="0 0 16 16" fill="none" xmlns="http://www.w3.org/2000/svg">
<path d="M9 1C9 0.446875 8.55313 0 8 0C7.44688 0 7 0.446875 7 1V8.58438L4.70625 6.29063C4.31563 5.9 3.68125 5.9 3.29063 6.29063C2.9 6.68125 2.9 7.31563 3.29063 7.70625L7.29063 11.7063C7.68125 12.0969 8.31563 12.0969 8.70625 11.7063L12.7063 7.70625C13.0969 7.31563 13.0969 6.68125 12.7063 6.29063C12.3156 5.9 11.6812 5.9 11.2906 6.29063L9 8.58438V1ZM2 11C0.896875 11 0 11.8969 0 13V14C0 15.1031 0.896875 16 2 16H14C15.1031 16 16 15.1031 16 14V13C16 11.8969 15.1031 11 14 11H10.8281L9.4125 12.4156C8.63125 13.1969 7.36562 13.1969 6.58437 12.4156L5.17188 11H2ZM13.5 12.75C13.9139 12.75 14.25 13.0861 14.25 13.5C14.25 13.9139 13.9139 14.25 13.5 14.25C13.0861 14.25 12.75 13.9139 12.75 13.5C12.75 13.0861 13.0861 12.75 13.5 12.75Z" fill="#334155"/>
</svg>
