<svg width="16" height="17" viewBox="0 0 16 17" fill="none" xmlns="http://www.w3.org/2000/svg">
<path d="M7.87505 2.625C5.66567 2.625 3.89653 3.63125 2.60864 4.82891C1.32896 6.01562 0.473096 7.4375 0.0684082 8.41367C-0.0218262 8.62969 -0.0218262 8.87031 0.0684082 9.08633C0.473096 10.0625 1.32896 11.4844 2.60864 12.6711C3.89653 13.8688 5.66567 14.875 7.87505 14.875C10.0844 14.875 11.8536 13.8688 13.1415 12.6711C14.4211 11.4816 15.277 10.0625 15.6844 9.08633C15.7747 8.87031 15.7747 8.62969 15.6844 8.41367C15.277 7.4375 14.4211 6.01562 13.1415 4.82891C11.8536 3.63125 10.0844 2.625 7.87505 2.625ZM3.93755 8.75C3.93755 7.34327 4.68803 6.04339 5.9063 5.34002C7.12457 4.63666 8.62553 4.63666 9.8438 5.34002C11.0621 6.04339 11.8125 7.34327 11.8125 8.75C11.8125 10.9232 10.0482 12.6875 7.87505 12.6875C5.70188 12.6875 3.93755 10.9232 3.93755 8.75ZM7.87505 7C7.87505 7.96523 7.09028 8.75 6.12505 8.75C5.93091 8.75 5.74497 8.71719 5.56997 8.65977C5.41958 8.61055 5.24458 8.70352 5.25005 8.86211C5.25825 9.05078 5.2856 9.23945 5.33755 9.42812C5.71216 10.8281 7.15317 11.6594 8.55317 11.2848Cnan nan 10.7844 9.46914 10.4098 8.06914C10.1063 6.93437 9.10278 6.17148 7.98716 6.125C7.82856 6.11953 7.7356 6.2918 7.78481 6.44492C7.84224 6.61992 7.87505 6.80586 7.87505 7Z" fill="#94A3B8"/>
</svg>
