<svg width="14" height="16" viewBox="0 0 14 16" fill="none" xmlns="http://www.w3.org/2000/svg">
<path d="M0 2.5V7.17187C0 7.70312 0.209375 8.2125 0.584375 8.5875L6.08437 14.0875C6.86562 14.8687 8.13125 14.8687 8.9125 14.0875L13.0844 9.91562C13.8656 9.13437 13.8656 7.86875 13.0844 7.0875L7.58437 1.5875C7.20937 1.2125 6.7 1.00312 6.16875 1.00312H1.5C0.671875 0.999999 0 1.67187 0 2.5ZM3.5 3.5C3.85727 3.5 4.18739 3.6906 4.36603 4C4.54466 4.3094 4.54466 4.6906 4.36603 5C4.18739 5.3094 3.85727 5.5 3.5 5.5C2.94808 5.5 2.5 5.05191 2.5 4.5C2.5 3.94808 2.94808 3.5 3.5 3.5Z" fill="#64748B"/>
</svg>
