<svg width="4" height="20" viewBox="0 0 4 20" fill="none" xmlns="http://www.w3.org/2000/svg">
<path d="M2 13.25C1.03415 13.25 0.25 14.0341 0.25 15C0.25 15.9659 1.03415 16.75 2 16.75C2.96585 16.75 3.75 15.9659 3.75 15C3.75 14.0341 2.96585 13.25 2 13.25ZM2 8.25C1.03415 8.25 0.25 9.03415 0.25 10C0.25 10.9659 1.03415 11.75 2 11.75C2.96585 11.75 3.75 10.9659 3.75 10C3.75 9.03415 2.96585 8.25 2 8.25ZM3.75 5C3.75 4.03415 2.96585 3.25 2 3.25C1.03415 3.25 0.25 4.03415 0.25 5C0.25 5.96585 1.03415 6.75 2 6.75C2.96585 6.75 3.75 5.96585 3.75 5Z" fill="#94A3B8"/>
</svg>
