<svg width="12" height="12" viewBox="0 0 12 12" fill="none" xmlns="http://www.w3.org/2000/svg">
<path d="M8.50062 0.452347L7.36624 1.58672L10.4131 4.6336L11.5475 3.49922C12.1334 2.91328 12.1334 1.96407 11.5475 1.37813L10.6241 0.452347C10.0381 -0.133591 9.0889 -0.133591 8.50296 0.452347H8.50062ZM6.83656 2.11641L1.37328 7.58203C1.12953 7.82578 0.9514 8.12813 0.852963 8.4586L0.0232751 11.2781C-0.0353187 11.4773 0.0185876 11.6906 0.1639 11.8359C0.309213 11.9813 0.522494 12.0352 0.719369 11.9789L3.5389 11.1492C3.86937 11.0508 4.17171 10.8727 4.41546 10.6289L9.88343 5.16328L6.83656 2.11641Z" fill="#334155"/>
</svg>
