<svg width="18" height="21" viewBox="0 0 18 21" fill="none" xmlns="http://www.w3.org/2000/svg">
<path d="M9 19.25C13.9672 19.25 18 15.2172 18 10.25C18 5.28276 13.9672 1.25 9 1.25C4.03276 1.25 0 5.28276 0 10.25C0 15.2172 4.03276 19.25 9 19.25ZM5.96953 7.06133C6.24727 6.27734 6.99258 5.75 7.82578 5.75H9.87539C11.1023 5.75 12.0938 6.74492 12.0938 7.96836C12.0938 8.76289 11.6684 9.49766 10.9793 9.89492L9.84375 10.5453C9.83672 11.0023 9.46055 11.375 9 11.375C8.53242 11.375 8.15625 10.9988 8.15625 10.5312V10.0566C8.15625 9.7543 8.31797 9.47656 8.58164 9.32539L10.1391 8.43242C10.3043 8.3375 10.4062 8.16172 10.4062 7.97188C10.4062 7.67656 10.1672 7.44102 9.87539 7.44102H7.82578C7.70625 7.44102 7.60078 7.51484 7.56211 7.62734L7.54805 7.66953C7.39336 8.10898 6.9082 8.3375 6.47227 8.18281Cnan nan 5.8043 7.54297 5.95898 7.10703L5.97305 7.06484L5.96953 7.06133ZM7.875 13.625C7.875 13.0041 8.3791 12.5 9 12.5C9.6209 12.5 10.125 13.0041 10.125 13.625C10.125 14.2459 9.6209 14.75 9 14.75C8.3791 14.75 7.875 14.2459 7.875 13.625Z" fill="#64748B"/>
</svg>
