<svg width="16" height="14" viewBox="0 0 16 14" fill="none" xmlns="http://www.w3.org/2000/svg">
<path d="M4.14543 12.8406C3.97864 13.0211 3.74621 13.125 3.50012 13.125C3.25403 13.125 3.0216 13.0211 2.85481 12.8406L0.448558 10.2156C0.123167 9.86016 0.145042 9.30508 0.503245 8.97969C0.861448 8.6543 1.41379 8.67617 1.73918 9.03438L2.62512 9.99961V1.75C2.62512 1.26602 3.01614 0.875 3.50012 0.875C3.9841 0.875 4.37512 1.26602 4.37512 1.75V9.99961L5.26106 9.03164C5.58645 8.67617 6.14153 8.65156 6.49699 8.97695C6.85246 9.30234 6.87707 9.85742 6.55168 10.2129L4.14543 12.8379V12.8406ZM8.75012 0.875H9.62512C10.1091 0.875 10.5001 1.26602 10.5001 1.75Cnan nan 10.1091 2.625 9.62512 2.625H8.75012C8.26614 2.625 7.87512 2.23398 7.87512 1.75Cnan nan 8.26614 0.875 8.75012 0.875ZM8.75012 4.375H11.3751C11.8591 4.375 12.2501 4.76602 12.2501 5.25Cnan nan 11.8591 6.125 11.3751 6.125H8.75012C8.26614 6.125 7.87512 5.73398 7.87512 5.25Cnan nan 8.26614 4.375 8.75012 4.375ZM8.75012 7.875H13.1251C13.6091 7.875 14.0001 8.26602 14.0001 8.75Cnan nan 13.6091 9.625 13.1251 9.625H8.75012C8.26614 9.625 7.87512 9.23398 7.87512 8.75Cnan nan 8.26614 7.875 8.75012 7.875ZM8.75012 11.375H14.8751C15.3591 11.375 15.7501 11.766 15.7501 12.25Cnan nan 15.3591 13.125 14.8751 13.125H8.75012C8.26614 13.125 7.87512 12.734 7.87512 12.25Cnan nan 8.26614 11.375 8.75012 11.375Z" fill="#334155"/>
</svg>
